<svg xmlns="http://www.w3.org/2000/svg" viewBox="0 0 820 314" width="820" height="314" font-family="Segoe UI, Roboto, Helvetica, Arial, sans-serif"><rect x="1" y="1" width="818" height="312" rx="18" fill="#ffffff" stroke="#d5dde5" stroke-width="2"/><text x="28" y="42" font-size="21" font-weight="700" fill="#1a2330">Passo 3 · Sensor de toque TTP223</text><text x="28" y="66" font-size="14" fill="#5f6b7a">Capacitivo: sente o dedo através do plástico da caixa. É a "cabeça" dele.</text><rect x="40" y="110" width="210" height="184" rx="14" fill="#eaf2fb" stroke="#1a2330" stroke-width="2"/><text x="145" y="100" text-anchor="middle" font-size="15" font-weight="700" fill="#1a2330">ESP32-C3</text><rect x="570" y="110" width="210" height="184" rx="14" fill="#f4f6f8" stroke="#1a2330" stroke-width="2"/><text x="675" y="100" text-anchor="middle" font-size="15" font-weight="700" fill="#1a2330">Toque TTP223</text><path d="M250 140 H570" stroke="#e53935" stroke-width="5" stroke-linecap="round"/><circle cx="250" cy="140" r="7" fill="#e53935" stroke="#fff" stroke-width="2"/><circle cx="570" cy="140" r="7" fill="#e53935" stroke="#fff" stroke-width="2"/><text x="234" y="145" text-anchor="end" font-size="15" font-weight="600" fill="#1a2330">3V3</text><text x="586" y="145" font-size="15" font-weight="600" fill="#1a2330">VCC</text><rect x="366" y="116" width="88" height="18" rx="9" fill="#fff"/><text x="410" y="130" text-anchor="middle" font-size="12.5" fill="#5f6b7a">fio vermelho</text><path d="M250 192 H570" stroke="#37474f" stroke-width="5" stroke-linecap="round"/><circle cx="250" cy="192" r="7" fill="#37474f" stroke="#fff" stroke-width="2"/><circle cx="570" cy="192" r="7" fill="#37474f" stroke="#fff" stroke-width="2"/><text x="234" y="197" text-anchor="end" font-size="15" font-weight="600" fill="#1a2330">GND</text><text x="586" y="197" font-size="15" font-weight="600" fill="#1a2330">GND</text><rect x="366" y="168" width="88" height="18" rx="9" fill="#fff"/><text x="410" y="182" text-anchor="middle" font-size="12.5" fill="#5f6b7a">fio preto</text><path d="M250 244 H570" stroke="#43a047" stroke-width="5" stroke-linecap="round"/><circle cx="250" cy="244" r="7" fill="#43a047" stroke="#fff" stroke-width="2"/><circle cx="570" cy="244" r="7" fill="#43a047" stroke="#fff" stroke-width="2"/><text x="234" y="249" text-anchor="end" font-size="15" font-weight="600" fill="#1a2330">GPIO10</text><text x="586" y="249" font-size="15" font-weight="600" fill="#1a2330">I/O</text><rect x="366" y="220" width="88" height="18" rx="9" fill="#fff"/><text x="410" y="234" text-anchor="middle" font-size="12.5" fill="#5f6b7a">fio verde</text><text x="40" y="292" font-size="13.5" fill="#5f6b7a">Ativo em nível alto: o pino I/O vai a 3,3 V enquanto você toca.</text></svg>